<?xml version="1.0" encoding="UTF-8"?><svg id="a" xmlns="http://www.w3.org/2000/svg" width="38.28mm" height="38.28mm" viewBox="0 0 108.5 108.5"><circle cx="54.25" cy="54.25" r="54.25" fill="#fff"/><path d="m75.27,29c-8.41-1.32-16.31,4.14-18.17,12.32,0-.24,0-.47,0-.71,0-.06,0-.11,0-.17v.07c-.17-7.65-5.75-14.32-13.56-15.55-9.29-1.46-16.77,6.12-18.39,13.39-.99,4.45.32,8.29,1.12,10.16l6.15,10.4,11.91,20.13c1.19,2.02,3.54,3.33,6.06,3.82l.89.12c3.56.17,4.93-1.03,6.82-2.71l17.51-15.51,9.05-8.02c1.31-1.57,3.64-4.84,4.01-9.35.61-7.39-4.12-16.93-13.39-18.39Z" fill="#ed6c9f"/><path d="m57.5,57.27c.23-6.88-3.11-12.83-8.18-14.83-4.32-1.7-8.58,0-8.8.07-3.94,1.35-6.69,4.47-8.53,7.73-1.42,2.52-2.89,3.69-4.03,4.22-4.55.27-8.16,4.04-8.16,8.66s3.89,8.68,8.68,8.68c4.96.86,17.77-1.92,20.56-.58,9.99,4.82,12.74-2.81,13.29-4.24,1.41-3.65-3.75-8.71-4.81-9.72Z" fill="#e72d47"/><path d="m44.28,42.83c2.25-.98,4.29-.55,4.94-.39,1.52.39,2.55,1.07,3.21,1.54,2.63,1.88,3.9,4.45,4.49,5.97.59,1.8,1.34,4.37,1.93,7.51.74,3.96,1.09,5.97.39,7.35-1.87,3.67-8.43,2.51-11.94,3.37-4.69,1.15-8.71-1.92-8.99-5.14-.2-2.36,1.61-4.97,4.49-6.16-2.9-3.19-3.81-7.35-2.3-10.43,1.21-2.47,3.67-3.58,3.78-3.63Z" fill="#fff"/><path d="m82.89,74.86l-1.84-2.69c-.15-.22-.24-.47-.26-.73l-.35-3.53c-.03-.34-.18-.66-.41-.91l-6.85-7.32c-1.04-.77-4.63-3.95-5.39-5.23-.56-.94-.61-1.12-.58-1.14l-.17-.41c-.45-.85-.93-1.14-1.29-1.24-1.77-.49-2.89,2.75-7.51,5.91-1.39.95-2.37,1.39-3.47,2.76-1.16,1.44-1.6,2.85-1.8,3.47-2.75,8.51-3.46,12.47-4.94,17.16-.32,1,.43,2.03,1.49,2.03h20.66c.07,0,.13,0,.2.01l5.61.72c.53.07,1.05-.14,1.39-.54l5.42-6.44c.45-.54.49-1.31.09-1.88Z" fill="#c41839"/><path d="m67.63,54.34c1.03,1.73,5.86,6.01,7.26,7.05l-.06-.07c-.35-.37-.55-.87-.57-1.38l-.14-5.26c-.05-1.93-2.46-2.77-3.71-1.29h0c-1.01,1.2-2.93.91-3.54-.53l-.02-.05s.03.27.78,1.54Z" fill="#e72d47"/></svg>