<?xml version="1.0" encoding="UTF-8"?><svg id="a" xmlns="http://www.w3.org/2000/svg" width="44.9mm" height="15.58mm" viewBox="0 0 127.28 44.16"><path d="m64.65,21.54c-.65,1.05-1.59,1.9-2.83,2.57s-2.71,1.05-4.42,1.17l-.95,5.33c-.37,2.05-1.37,3.08-3.01,3.08-.9,0-1.73-.27-2.49-.8-.76-.53-1.37-1.34-1.83-2.43-.46-1.09-.69-2.43-.69-4.03,0-2.99.48-5.53,1.45-7.62.97-2.09,2.26-3.65,3.89-4.69,1.63-1.04,3.43-1.56,5.39-1.56,1.39,0,2.56.24,3.53.73.97.49,1.7,1.15,2.19,1.98.49.83.74,1.77.74,2.82,0,1.25-.32,2.4-.97,3.45Zm-2.32-3.25c0-.97-.32-1.77-.96-2.38-.64-.61-1.63-.92-2.98-.92-1.52,0-2.84.48-3.97,1.44-1.13.96-2,2.29-2.61,3.99-.61,1.7-.92,3.65-.92,5.83,0,.91.09,1.73.28,2.43.18.71.42,1.26.71,1.65.29.39.56.59.83.59.37,0,.65-.51.84-1.53l.73-4.18c-.58-.09-.83-.13-.75-.11-.44-.07-.73-.21-.86-.41s-.2-.45-.2-.76.09-.58.28-.77c.18-.19.44-.29.76-.29.15,0,.26,0,.33.02.35.06.63.1.82.11.19-1.15.46-2.69.82-4.62.09-.5.29-.86.61-1.07.32-.21.69-.32,1.12-.32.49,0,.84.09,1.05.28.21.18.32.48.32.87,0,.24-.01.43-.04.58l-.73,4.29c3.02-.38,4.54-1.95,4.54-4.71Z" fill="#e72d47"/><path d="m75.51,26.6c.11.18.17.42.17.73,0,.59-.14,1.05-.42,1.37-.55.66-1.32,1.28-2.31,1.84-1,.56-2.06.84-3.2.84-1.55,0-2.75-.42-3.61-1.26s-1.28-1.99-1.28-3.45c0-1.02.21-1.97.64-2.84.43-.88,1.02-1.57,1.78-2.09.76-.52,1.62-.77,2.58-.77.86,0,1.54.25,2.06.76.52.51.77,1.2.77,2.07,0,1.02-.36,1.89-1.09,2.62-.73.73-1.97,1.31-3.71,1.74.37.68,1.07,1.02,2.1,1.02.66,0,1.42-.23,2.27-.7.85-.46,1.58-1.07,2.2-1.83.18-.21.38-.31.6-.31.19,0,.34.09.45.27Zm-7.41-2.52c-.38.63-.56,1.4-.56,2.3v.04c.87-.21,1.56-.52,2.06-.93.5-.41.75-.89.75-1.44,0-.28-.08-.5-.23-.67-.15-.17-.36-.25-.63-.25-.55,0-1.01.32-1.38.95Z" fill="#e72d47"/><path d="m84.2,26.6c.11.18.17.42.17.73,0,.59-.14,1.05-.42,1.37-.63.78-1.33,1.42-2.08,1.92-.75.5-1.61.75-2.59.75-3.01,0-4.51-2.12-4.51-6.35,0-.65.02-1.31.07-1.97h-.86c-.44,0-.74-.08-.9-.24-.15-.16-.23-.42-.23-.77,0-.83.33-1.24,1-1.24h1.26c.25-1.62.63-3.1,1.15-4.45.52-1.34,1.14-2.41,1.87-3.21.73-.8,1.52-1.19,2.36-1.19.62,0,1.11.27,1.46.82.35.55.53,1.23.53,2.06,0,2.29-.96,4.28-2.88,5.97h2.48c.24,0,.41.05.51.15.1.1.15.3.15.58,0,1.02-.83,1.53-2.5,1.53h-2.7c-.03.74-.04,1.31-.04,1.73,0,1.53.18,2.61.54,3.23.36.62.93.93,1.71.93.63,0,1.19-.19,1.68-.58.49-.38,1.06-.96,1.73-1.73.18-.21.38-.31.6-.31.19,0,.34.09.45.27Zm-5.07-11.69c-.27.55-.53,1.32-.77,2.3-.24.98-.45,2.07-.61,3.26.87-.75,1.52-1.6,1.96-2.53.43-.94.65-1.79.65-2.56,0-.87-.16-1.31-.49-1.31-.22,0-.47.28-.74.83Z" fill="#e72d47"/><path d="m99.09,26.6c.11.18.17.42.17.73,0,.58-.14,1.03-.42,1.37-.83.99-1.63,1.68-2.4,2.08-.77.4-1.71.6-2.8.6-.77,0-1.48-.1-2.12-.29-.65-.19-1.44-.48-2.37-.86-.84-.37-1.65-.67-2.43-.91-.75,1.37-1.88,2.06-3.38,2.06-.83,0-1.49-.19-1.98-.56-.49-.38-.74-.86-.74-1.45,0-.72.35-1.32,1.04-1.8.69-.48,1.61-.72,2.77-.72h.29l.4-6.44c.09-1.47.35-2.69.8-3.65.44-.96,1.05-1.78,1.84-2.46.68-.59,1.45-1.04,2.32-1.34.87-.3,1.79-.45,2.77-.45,1.59,0,2.82.41,3.67,1.24.86.83,1.28,1.9,1.28,3.23,0,.9-.16,1.63-.49,2.18-.32.55-.77.83-1.35.83-.41,0-.74-.1-.97-.3-.24-.2-.35-.48-.35-.85,0-.13.03-.38.09-.73.09-.41.13-.78.13-1.11,0-.62-.18-1.11-.54-1.47-.36-.36-.91-.54-1.65-.54-1.3,0-2.3.42-3.01,1.27-.71.85-1.16,2.18-1.35,3.99l-.51,5.02c-.07.71-.17,1.32-.29,1.84.94.16,2.12.42,3.54.77.83.21,1.46.35,1.9.44.44.09.83.13,1.17.13.86,0,1.59-.14,2.2-.43.61-.29,1.19-.75,1.74-1.38.18-.21.38-.31.6-.31.19,0,.34.09.45.27Z" fill="#e72d47"/><path d="m98.09,30.36c-.44-.68-.65-1.58-.65-2.7,0-.66.08-1.52.25-2.56.17-1.04.39-2.01.65-2.91.13-.47.31-.8.53-.97.22-.18.58-.27,1.06-.27.75,0,1.13.25,1.13.75,0,.37-.14,1.22-.42,2.57-.35,1.62-.53,2.72-.53,3.3,0,.44.06.78.18,1.02.12.24.32.35.6.35.27,0,.6-.18,1-.55.4-.37.93-.95,1.59-1.75.18-.21.38-.31.6-.31.19,0,.34.09.45.27.11.18.17.42.17.73,0,.59-.14,1.05-.42,1.37-1.46,1.78-2.82,2.68-4.09,2.68-.96,0-1.66-.34-2.09-1.02Zm.87-11.29c-.31-.29-.46-.69-.46-1.21s.2-.95.61-1.29c.41-.35.91-.52,1.52-.52.55,0,.99.13,1.33.4.34.27.51.64.51,1.13,0,.59-.19,1.06-.57,1.4-.38.35-.89.52-1.53.52s-1.08-.14-1.39-.43Z" fill="#e72d47"/><path d="m103.29,30.5c-.23-.59-.34-1.53-.34-2.83,0-1.92.27-3.74.82-5.46.13-.43.35-.74.65-.94.3-.2.73-.3,1.27-.3.29,0,.5.04.62.11.12.07.18.21.18.42,0,.24-.11.77-.33,1.59-.15.59-.27,1.11-.35,1.55-.09.44-.16.99-.22,1.64.49-1.27,1.03-2.3,1.64-3.1.6-.8,1.2-1.36,1.78-1.7.58-.34,1.12-.51,1.6-.51.96,0,1.44.48,1.44,1.44,0,.57-.16,1.61-.49,3.12-.28,1.28-.42,2.13-.42,2.54,0,.59.21.88.64.88.29,0,.65-.18,1.05-.54.41-.36.95-.95,1.63-1.76.18-.21.38-.31.6-.31.19,0,.34.09.45.27s.17.42.17.73c0,.59-.14,1.05-.42,1.37-.63.78-1.32,1.42-2.05,1.92-.73.5-1.56.75-2.49.75-.75,0-1.32-.22-1.7-.65-.38-.43-.58-1.07-.58-1.89,0-.41.1-1.15.31-2.21.19-.93.29-1.57.29-1.92,0-.24-.08-.35-.24-.35-.19,0-.46.25-.81.74-.35.49-.7,1.15-1.06,1.96-.36.81-.65,1.67-.87,2.57-.16.69-.35,1.16-.56,1.4-.21.24-.55.36-1.01.36-.56,0-.96-.29-1.18-.88Z" fill="#e72d47"/><path d="m127.12,26.6c.11.18.17.42.17.73,0,.59-.14,1.05-.42,1.37-.66.81-1.34,1.46-2.01,1.95-.68.49-1.48.73-2.41.73-1.14,0-2.05-.32-2.74-.97s-1.04-1.51-1.04-2.59c0-.58.29-.99.88-1.24.65-.28,1.11-.58,1.39-.9.28-.32.42-.7.42-1.16,0-.27-.06-.46-.17-.6s-.25-.2-.41-.2c-.4,0-.84.29-1.32.86-.48.58-.93,1.32-1.34,2.22s-.74,1.84-.97,2.8c-.16.69-.35,1.16-.56,1.4-.21.24-.55.36-1.01.36s-.79-.17-1.01-.5c-.21-.33-.36-.84-.43-1.54-.07-.69-.11-1.71-.11-3.05,0-2.27.23-4.64.7-7.1.46-2.46,1.15-4.53,2.06-6.21.91-1.67,1.99-2.51,3.26-2.51.68,0,1.23.29,1.65.87.42.58.63,1.34.63,2.27,0,1.49-.44,3.03-1.3,4.63-.87,1.6-2.29,3.47-4.25,5.61-.04.77-.07,1.56-.07,2.37.71-1.84,1.52-3.18,2.43-4.02.91-.83,1.77-1.25,2.57-1.25.74,0,1.33.25,1.78.75.45.5.67,1.12.67,1.86,0,.81-.21,1.56-.62,2.23-.41.68-1.12,1.28-2.12,1.81.06.4.24.72.54.96.3.24.67.36,1.09.36.46,0,.9-.18,1.33-.53.43-.35.99-.94,1.68-1.77.18-.21.38-.31.6-.31.19,0,.34.09.45.27Zm-8.42-12.8c-.32.76-.64,1.78-.94,3.08-.3,1.29-.55,2.7-.74,4.21.91-1.08,1.67-2.25,2.27-3.52.6-1.27.9-2.42.9-3.45,0-.47-.05-.83-.15-1.08-.1-.25-.25-.38-.44-.38-.27,0-.56.38-.88,1.14Z" fill="#e72d47"/><circle cx="22.08" cy="22.08" r="22.08" fill="#fff"/><path d="m30.63,11.8c-3.42-.54-6.64,1.68-7.39,5.01,0-.1,0-.19,0-.29,0-.02,0-.05,0-.07v.03c-.07-3.11-2.34-5.83-5.52-6.33-3.78-.59-6.82,2.49-7.48,5.45-.4,1.81.13,3.37.45,4.13l2.5,4.23,4.85,8.19c.49.82,1.44,1.36,2.47,1.55l.36.05c1.45.07,2-.42,2.78-1.1l7.12-6.31,3.68-3.26c.53-.64,1.48-1.97,1.63-3.81.25-3.01-1.68-6.89-5.45-7.48Z" fill="#ed6c9f"/><path d="m23.4,23.31c.09-2.8-1.26-5.22-3.33-6.03-1.76-.69-3.49,0-3.58.03-1.6.55-2.72,1.82-3.47,3.15-.58,1.03-1.17,1.5-1.64,1.72-1.85.11-3.32,1.65-3.32,3.53s1.58,3.53,3.53,3.53c2.02.35,7.23-.78,8.37-.23,4.06,1.96,5.18-1.14,5.41-1.72.57-1.48-1.53-3.54-1.96-3.96Z" fill="#e72d47"/><path d="m18.02,17.43c.92-.4,1.75-.22,2.01-.16.62.16,1.04.43,1.31.63,1.07.76,1.59,1.81,1.83,2.43.24.73.55,1.78.78,3.06.3,1.61.44,2.43.16,2.99-.76,1.49-3.43,1.02-4.86,1.37-1.91.47-3.55-.78-3.66-2.09-.08-.96.65-2.02,1.83-2.51-1.18-1.3-1.55-2.99-.94-4.24.49-1.01,1.49-1.46,1.54-1.48Z" fill="#fff"/><path d="m33.73,30.47l-.75-1.09c-.06-.09-.1-.19-.11-.3l-.14-1.44c-.01-.14-.07-.27-.17-.37l-2.79-2.98c-.42-.31-1.88-1.61-2.19-2.13-.23-.38-.25-.46-.24-.46l-.07-.16c-.18-.35-.38-.46-.53-.5-.72-.2-1.18,1.12-3.06,2.4-.57.39-.96.57-1.41,1.12-.47.59-.65,1.16-.73,1.41-1.12,3.46-1.41,5.08-2.01,6.98-.13.41.18.82.6.82h8.41s.05,0,.08,0l2.28.29c.21.03.43-.06.57-.22l2.21-2.62c.18-.22.2-.53.04-.77Z" fill="#c41839"/><path d="m27.52,22.11c.42.71,2.38,2.45,2.95,2.87l-.03-.03c-.14-.15-.22-.35-.23-.56l-.06-2.14c-.02-.79-1-1.13-1.51-.53h0c-.41.49-1.19.37-1.44-.22v-.02s0,.11.31.63Z" fill="#e72d47"/></svg>