<?xml version="1.0" encoding="UTF-8"?><svg id="Layer_2" xmlns="http://www.w3.org/2000/svg" viewBox="0 0 34.9 34.9"><defs><style>.cls-1{fill:#c4203b;}</style></defs><g id="Layer_1-2"><path class="cls-1" d="m24.47,34.9h-14.04c-5.75,0-10.43-4.68-10.43-10.43v-14.04C0,4.68,4.68,0,10.43,0h14.04c5.75,0,10.43,4.68,10.43,10.43v14.04c0,5.75-4.68,10.43-10.43,10.43ZM10.43,2C5.78,2,2,5.78,2,10.43v14.04c0,4.65,3.78,8.43,8.43,8.43h14.04c4.65,0,8.43-3.78,8.43-8.43v-14.04c0-4.65-3.78-8.43-8.43-8.43h-14.04Z"/><path class="cls-1" d="m28.08,17.21H9.97l8.15-5.19c.33-.21.43-.66.22-.99-.21-.33-.66-.43-.99-.22l-10.23,6.51c-.21.13-.33.36-.33.61s.13.47.33.61l10.23,6.51c.12.08.25.11.39.11.24,0,.47-.12.61-.33.21-.33.11-.78-.22-.99l-8.15-5.19h18.1c.4,0,.72-.32.72-.72s-.32-.72-.72-.72Z"/></g></svg>