<?xml version="1.0" encoding="UTF-8"?><svg id="Layer_2" xmlns="http://www.w3.org/2000/svg" viewBox="0 0 34.9 34.9"><defs><style>.cls-1{fill:#c4203b;}</style></defs><g id="Layer_1-2"><path class="cls-1" d="m24.47,34.9h-14.04c-5.75,0-10.43-4.68-10.43-10.43v-14.04C0,4.68,4.68,0,10.43,0h14.04c5.75,0,10.43,4.68,10.43,10.43v14.04c0,5.75-4.68,10.43-10.43,10.43ZM10.43,2C5.78,2,2,5.78,2,10.43v14.04c0,4.65,3.78,8.43,8.43,8.43h14.04c4.65,0,8.43-3.78,8.43-8.43v-14.04c0-4.65-3.78-8.43-8.43-8.43h-14.04Z"/><g><circle class="cls-1" cx="10.57" cy="17.99" r="1.98"/><circle class="cls-1" cx="17.7" cy="17.99" r="1.98"/><circle class="cls-1" cx="24.82" cy="17.99" r="1.98"/></g></g></svg>